<svg width="128" height="128" viewBox="0 0 128 128" xmlns="http://www.w3.org/2000/svg">
  <!-- Violet‑centric gradient background -->
  <defs>
    <linearGradient id="bg-grad" x1="0%" y1="0%" x2="100%" y2="100%">
      <stop offset="0%" stop-color="#7A1FA2"></stop>
      <stop offset="100%" stop-color="#6E5EF9"></stop>
    </linearGradient>
  </defs>
  <rect width="128" height="128" rx="20" fill="url(#bg-grad)"></rect>

  <!-- Back sheet (soft card tone) -->
  <path d="M34 40h50a5 5 0 0 1 5 5v50a5 5 0 0 1-5 5H34a5 5 0 0 1-5-5V45a5 5 0 0 1 5-5z" fill="rgba(255,255,255,0.6)"></path>

  <!-- Front sheet -->
  <path d="M42 30h50a5 5 0 0 1 5 5v50a5 5 0 0 1-5 5H42a5 5 0 0 1-5-5V35a5 5 0 0 1 5-5z" fill="#FFFFFF"></path>

  <!-- AI spark network -->
  <g stroke="#FFB400" stroke-width="4" stroke-linecap="round" stroke-linejoin="round" fill="#FFB400">
    <circle cx="56" cy="42" r="4"></circle>
    <circle cx="70" cy="40" r="4"></circle>
    <circle cx="62" cy="52" r="4"></circle>
    <line x1="56" y1="42" x2="70" y2="40"></line>
    <line x1="56" y1="42" x2="62" y2="52"></line>
    <line x1="70" y1="40" x2="62" y2="52"></line>
  </g>

  <!-- Magnifier (now on top and contrasting) -->
  <g stroke-linecap="round" stroke-linejoin="round">
    <!-- Ring in bright blue -->
    <circle cx="78" cy="78" r="20" fill="none" stroke="#37B4E7" stroke-width="6"></circle>
    <!-- Handle in dark navy -->
    <line x1="92" y1="92" x2="104" y2="104" stroke="#0F2F4A" stroke-width="6"></line>
  </g>
</svg>
